HIERARCHY
ROOT Hips
{
	OFFSET 0.000000 0.000000 0.000000
	CHANNELS 6 Xposition Yposition Zposition Xrotation Yrotation Zrotation
	JOINT Spine
	{
		OFFSET 0.000000 0.042231 0.063346
		CHANNELS 3 Xrotation Yrotation Zrotation
		JOINT Spine1
		{
			OFFSET 0.000000 0.014667 0.083179
			CHANNELS 3 Xrotation Yrotation Zrotation
			JOINT Spine2
			{
				OFFSET 0.000000 0.007361 0.084141
				CHANNELS 3 Xrotation Yrotation Zrotation
				JOINT Spine3
				{
					OFFSET 0.000000 0.000000 0.084462
					CHANNELS 3 Xrotation Yrotation Zrotation
					JOINT Neck
					{
						OFFSET 0.000000 -0.031673 0.221713
						CHANNELS 3 Xrotation Yrotation Zrotation
						JOINT Head
						{
							OFFSET 0.000000 -0.020167 0.114371
							CHANNELS 3 Xrotation Yrotation Zrotation
							End Site
							{
								OFFSET 0.000000 0.000000 0.000000
							}
						}
					}
					JOINT RightShoulder
					{
						OFFSET -0.029161 -0.048602 0.157471
						CHANNELS 3 Xrotation Yrotation Zrotation
						JOINT RightArm
						{
							OFFSET -0.144834 0.000000 0.000000
							CHANNELS 3 Xrotation Yrotation Zrotation
							JOINT RightForeArm
							{
								OFFSET -0.274949 0.000000 0.000000
								CHANNELS 3 Xrotation Yrotation Zrotation
								JOINT RightHand
								{
									OFFSET -0.254725 0.000000 0.000000
									CHANNELS 3 Xrotation Yrotation Zrotation
									JOINT RightHandEnd
									{
										OFFSET -0.068160 0.000000 0.000000
										CHANNELS 3 Xrotation Yrotation Zrotation
										End Site
										{
											OFFSET 0.000000 0.000000 0.000000
										}
									}
									JOINT RightHandThumb1
									{
										OFFSET -0.027264 -0.045440 -0.018176
										CHANNELS 3 Xrotation Yrotation Zrotation
										End Site
										{
											OFFSET 0.000000 0.000000 0.000000
										}
									}
								}
							}
						}
					}
					JOINT LeftShoulder
					{
						OFFSET 0.029161 -0.048602 0.157471
						CHANNELS 3 Xrotation Yrotation Zrotation
						JOINT LeftArm
						{
							OFFSET 0.144834 0.000000 0.000000
							CHANNELS 3 Xrotation Yrotation Zrotation
							JOINT LeftForeArm
							{
								OFFSET 0.274949 0.000000 0.000000
								CHANNELS 3 Xrotation Yrotation Zrotation
								JOINT LeftHand
								{
									OFFSET 0.254725 0.000000 0.000000
									CHANNELS 3 Xrotation Yrotation Zrotation
									JOINT LeftHandEnd
									{
										OFFSET 0.068160 0.000000 0.000000
										CHANNELS 3 Xrotation Yrotation Zrotation
										End Site
										{
											OFFSET 0.000000 0.000000 0.000000
										}
									}
									JOINT LeftHandThumb1
									{
										OFFSET 0.027264 -0.045440 -0.018176
										CHANNELS 3 Xrotation Yrotation Zrotation
										End Site
										{
											OFFSET 0.000000 0.000000 0.000000
										}
									}
								}
							}
						}
					}
				}
			}
		}
	}
	JOINT RightUpLeg
	{
		OFFSET -0.086512 0.000000 -0.025273
		CHANNELS 3 Xrotation Yrotation Zrotation
		JOINT RightLeg
		{
			OFFSET 0.000000 0.000000 -0.433119
			CHANNELS 3 Xrotation Yrotation Zrotation
			JOINT RightFoot
			{
				OFFSET 0.000000 0.000000 -0.404688
				CHANNELS 3 Xrotation Yrotation Zrotation
				JOINT RightToeBase
				{
					OFFSET 0.000000 -0.126496 -0.046041
					CHANNELS 3 Xrotation Yrotation Zrotation
					End Site
					{
						OFFSET 0.000000 0.000000 0.000000
					}
				}
			}
		}
	}
	JOINT LeftUpLeg
	{
		OFFSET 0.086512 0.000000 -0.025273
		CHANNELS 3 Xrotation Yrotation Zrotation
		JOINT LeftLeg
		{
			OFFSET 0.000000 0.000000 -0.433119
			CHANNELS 3 Xrotation Yrotation Zrotation
			JOINT LeftFoot
			{
				OFFSET 0.000000 0.000000 -0.404688
				CHANNELS 3 Xrotation Yrotation Zrotation
				JOINT LeftToeBase
				{
					OFFSET 0.000000 -0.126496 -0.046041
					CHANNELS 3 Xrotation Yrotation Zrotation
					End Site
					{
						OFFSET 0.000000 0.000000 0.000000
					}
				}
			}
		}
	}
}
MOTION
Frames: 4
Frame Time: 0.033333
0.224061 -2.762809 0.899978 -4.218300 0.531700 179.201500 -1.259400 0.203100 -0.269900 -0.812700 -0.171500 0.008400 -0.359100 -0.051100 1.302200 0.465900 -0.308600 0.254300 2.839700 -0.263900 3.281600 -2.143500 3.612500 4.132100 -1.653800 10.550100 -0.536400 -30.448300 -12.009700 -12.205800 0.000000 0.000000 26.368200 -9.052200 26.676500 -1.576900 0.000000 0.000000 0.000000 0.000000 0.000000 0.000000 3.757000 -7.666500 2.361400 -19.921000 15.793500 -0.531800 0.000000 0.000000 -16.402600 -8.965300 -25.845900 1.802300 0.000000 0.000000 0.000000 0.000000 0.000000 0.000000 -6.653400 3.010600 -34.053700 3.239700 0.000000 0.000000 -3.297600 2.774200 0.168400 1.230000 0.000000 0.000000 -4.261400 1.504900 27.010800 -2.891000 0.000000 0.000000 0.379300 5.842400 11.872100 0.086600 0.000000 0.000000 
0.224805 -2.763878 0.899996 -4.389600 0.513800 179.240400 -1.276400 0.193300 -0.261700 -0.813900 -0.169600 0.009600 -0.397700 -0.075100 1.280600 0.453000 -0.319900 0.263000 2.775900 -0.342400 3.245500 -2.179400 3.594300 4.121600 -1.625400 10.563500 -0.529400 -30.500400 -11.977100 -12.231400 0.000000 0.000000 26.458600 -9.049600 26.678000 -1.560100 0.000000 0.000000 0.000000 0.000000 0.000000 0.000000 3.768400 -7.682000 2.336100 -19.963500 15.790000 -0.502300 0.000000 0.000000 -16.471100 -8.978800 -25.843000 1.796200 0.000000 0.000000 0.000000 0.000000 0.000000 0.000000 -6.846200 2.916800 -34.104200 3.127400 0.000000 0.000000 -3.214700 2.767700 0.187300 1.239100 0.000000 0.000000 -4.510800 1.430900 26.900600 -2.887100 0.000000 0.000000 0.455800 5.884200 11.925500 0.105300 0.000000 0.000000 
0.225984 -2.765453 0.900013 -4.621600 0.480900 179.320100 -1.288800 0.177300 -0.251200 -0.808500 -0.165800 0.008900 -0.435000 -0.108200 1.253100 0.438800 -0.337000 0.272600 2.684200 -0.474800 3.193900 -2.263300 3.584900 4.116300 -1.586000 10.618700 -0.550800 -30.538900 -11.962100 -12.267500 0.000000 0.000000 26.540900 -9.036500 26.645300 -1.562400 0.000000 0.000000 0.000000 0.000000 0.000000 0.000000 3.771900 -7.733400 2.276200 -19.910100 15.771500 -0.507300 0.000000 0.000000 -16.496200 -8.844400 -25.770800 1.869000 0.000000 0.000000 0.000000 0.000000 0.000000 0.000000 -7.112900 2.771600 -34.192600 2.973600 0.000000 0.000000 -3.097200 2.775800 0.206100 1.254200 0.000000 0.000000 -4.861400 1.312600 26.732500 -2.878400 0.000000 0.000000 0.573000 5.946600 11.993700 0.132100 0.000000 0.000000 
0.227160 -2.766898 0.900026 -4.809300 0.446100 179.413300 -1.285000 0.161500 -0.244900 -0.792500 -0.160900 0.007000 -0.456900 -0.136900 1.220000 0.431700 -0.351400 0.279600 2.633200 -0.607300 3.156200 -2.397200 3.594100 4.133600 -1.558800 10.707100 -0.563900 -30.558800 -11.970000 -12.334800 0.000000 0.000000 26.557400 -8.989200 26.626600 -1.609300 0.000000 0.000000 0.000000 0.000000 0.000000 0.000000 3.774300 -7.804500 2.222400 -19.776900 15.741900 -0.568000 0.000000 0.000000 -16.443800 -8.590400 -25.632600 2.034200 0.000000 0.000000 0.000000 0.000000 0.000000 0.000000 -7.341900 2.636000 -34.259900 2.859500 0.000000 0.000000 -3.002600 2.807500 0.187700 1.281300 0.000000 0.000000 -5.161000 1.196800 26.604200 -2.869200 0.000000 0.000000 0.687200 6.019100 12.021000 0.157300 0.000000 0.000000 
